HIERARCHY
ROOT Hips
{
	OFFSET 0.000000 0.000000 0.000000
	CHANNELS 6 Xposition Yposition Zposition Xrotation Yrotation Zrotation
	JOINT LeftUpLeg_virtual
	{
		OFFSET 0.000000 0.000000 0.000000
		CHANNELS 3 Xrotation Yrotation Zrotation
		JOINT LeftUpLeg
		{
			OFFSET 10.205400 -3.823500 0.155100
			CHANNELS 3 Xrotation Yrotation Zrotation
			JOINT LeftLeg
			{
				OFFSET 0.708757 -12.982077 0.567790
				CHANNELS 3 Xrotation Yrotation Zrotation
				JOINT LeftFoot
				{
					OFFSET -0.708756 -10.717838 -2.184338
					CHANNELS 3 Xrotation Yrotation Zrotation
					JOINT LeftToeBase
					{
						OFFSET 0.108149 -7.191104 7.560241
						CHANNELS 3 Xrotation Yrotation Zrotation
						JOINT LeftToe_End
						{
							OFFSET 0.070230 0.081724 4.490308
							CHANNELS 3 Xrotation Yrotation Zrotation
							End Site
							{
								OFFSET 0 0 0
							}
						}
					}
				}
			}
		}
	}
	JOINT RightUpLeg_virtual
	{
		OFFSET 0.000000 0.000000 0.000000
		CHANNELS 3 Xrotation Yrotation Zrotation
		JOINT RightUpLeg
		{
			OFFSET -10.205400 -3.823500 0.005500
			CHANNELS 3 Xrotation Yrotation Zrotation
			JOINT RightLeg
			{
				OFFSET -0.708756 -12.982134 0.610632
				CHANNELS 3 Xrotation Yrotation Zrotation
				JOINT RightFoot
				{
					OFFSET 0.708754 -10.717769 -1.945823
					CHANNELS 3 Xrotation Yrotation Zrotation
					JOINT RightToeBase
					{
						OFFSET -0.108140 -7.191069 7.372968
						CHANNELS 3 Xrotation Yrotation Zrotation
						JOINT RightToe_End
						{
							OFFSET -0.070227 0.081735 4.479403
							CHANNELS 3 Xrotation Yrotation Zrotation
							End Site
							{
								OFFSET 0 0 0
							}
						}
					}
				}
			}
		}
	}
	JOINT Spine_virtual
	{
		OFFSET 0.000000 0.000000 0.000000
		CHANNELS 3 Xrotation Yrotation Zrotation
		JOINT Spine
		{
			OFFSET 0.000000 6.876099 0.125700
			CHANNELS 3 Xrotation Yrotation Zrotation
			JOINT Spine1
			{
				OFFSET 0.000000 5.730043 0.104720
				CHANNELS 3 Xrotation Yrotation Zrotation
				JOINT Spine1_split
				{
					OFFSET 0.000000 5.730043 0.104720
					CHANNELS 3 Xrotation Yrotation Zrotation
					JOINT Spine2
					{
						OFFSET 0.000000 5.730043 0.104720
						CHANNELS 3 Xrotation Yrotation Zrotation
						JOINT Neck_virtual
						{
							OFFSET 0.000000 0.000000 0.000000
							CHANNELS 3 Xrotation Yrotation Zrotation
							JOINT Neck
							{
								OFFSET 0.000000 10.314075 0.188496
								CHANNELS 3 Xrotation Yrotation Zrotation
								JOINT Head
								{
									OFFSET 0.000000 7.643700 -2.377400
									CHANNELS 3 Xrotation Yrotation Zrotation
									JOINT HeadTop_End
									{
										OFFSET 0.000000 43.788605 -13.619600
										CHANNELS 3 Xrotation Yrotation Zrotation
										End Site
										{
											OFFSET 0 0 0
										}
									}
								}
							}
						}
						JOINT LeftShoulder_virtual
						{
							OFFSET 0.000000 0.000000 0.000000
							CHANNELS 3 Xrotation Yrotation Zrotation
							JOINT LeftShoulder
							{
								OFFSET 2.196100 4.412489 0.087492
								CHANNELS 3 Xrotation Yrotation Zrotation
								JOINT LeftShoulder_split
								{
									OFFSET 2.196100 4.412489 0.087492
									CHANNELS 3 Xrotation Yrotation Zrotation
									JOINT LeftArm
									{
										OFFSET 8.771219 -2.981674 -0.026999
										CHANNELS 3 Xrotation Yrotation Zrotation
										JOINT LeftForeArm
										{
											OFFSET 8.512804 0.000000 -0.000000
											CHANNELS 3 Xrotation Yrotation Zrotation
											JOINT LeftHand
											{
												OFFSET 18.484802 0.000000 -0.000000
												CHANNELS 3 Xrotation Yrotation Zrotation
												End Site
												{
													OFFSET 0 0 0
												}
											}
										}
									}
								}
							}
						}
						JOINT RightShoulder_virtual
						{
							OFFSET 0.000000 0.000000 0.000000
							CHANNELS 3 Xrotation Yrotation Zrotation
							JOINT RightShoulder
							{
								OFFSET -2.196100 4.412496 0.070690
								CHANNELS 3 Xrotation Yrotation Zrotation
								JOINT RightShoulder_split
								{
									OFFSET -2.196100 4.412496 0.070690
									CHANNELS 3 Xrotation Yrotation Zrotation
									JOINT RightArm
									{
										OFFSET -8.771282 -2.981682 -0.094208
										CHANNELS 3 Xrotation Yrotation Zrotation
										JOINT RightForeArm
										{
											OFFSET -8.494598 0.000000 0.000000
											CHANNELS 3 Xrotation Yrotation Zrotation
											JOINT RightHand
											{
												OFFSET -18.483803 0.000000 0.000001
												CHANNELS 3 Xrotation Yrotation Zrotation
												End Site
												{
													OFFSET 0 0 0
												}
											}
										}
									}
								}
							}
						}
					}
				}
			}
		}
	}
}
MOTION
Frames: 11
Frame Time: 0.03333333
-0.897653 32.914871 1.385862 0.000000 0.000000 0.000000 -7.690934 7.285787 -0.430445 -11.084894 13.571863 15.764054 27.113353 0.521265 5.812010 -10.217247 -10.855023 -14.835914 -1.913282 0.675238 -1.075979 0.000000 0.000000 0.000000 -7.912572 9.574678 -0.333424 11.967984 -7.918958 6.040158 17.794246 -7.968469 -10.288827 -20.801720 -16.359177 5.190628 -7.224142 -0.895899 -1.508153 0.000000 0.000000 0.000000 -7.363592 6.933260 -0.901219 2.767017 0.424600 4.262595 2.273696 0.473261 2.891725 0.840524 -1.499430 -0.075728 0.000000 0.000000 0.000000 1.637131 0.751955 2.865170 12.409235 -0.781757 -1.360452 3.177615 -10.394104 -7.737222 0.000000 0.000000 0.000000 1.433485 0.775775 2.680235 2.154322 -14.459837 -11.897591 -0.589676 0.219176 -2.513328 4.171033 -3.343408 -69.891748 -1.734479 -1.154985 -0.303992 0.000000 0.000000 0.000000 1.430583 0.558543 2.896698 1.914784 8.790571 18.940405 1.216624 4.168204 -2.054419 24.971131 7.002774 59.021031 0.826333 7.006578 0.640671 0.000000 0.000000 0.000000 
-0.851670 32.994556 1.395739 0.000000 0.000000 0.000000 -7.322511 6.684224 -0.496082 -10.982070 13.927492 15.453467 26.382972 0.194154 5.650551 -10.085392 -9.947334 -14.578426 -1.767009 0.649996 -1.116837 0.000000 0.000000 0.000000 -7.559215 8.841949 -0.427267 11.596045 -8.021019 5.869688 17.290317 -7.844827 -10.226948 -20.226195 -15.598393 5.377532 -7.286642 -0.831446 -1.488690 0.000000 0.000000 0.000000 -6.895324 6.474941 -0.953225 2.691086 0.311422 4.261643 2.355983 0.341249 2.877802 0.867525 -1.511734 -0.078738 0.000000 0.000000 0.000000 1.759258 0.580095 2.850764 12.205648 -0.534906 -1.253591 2.337425 -9.274307 -7.142562 0.000000 0.000000 0.000000 1.464759 0.601782 2.630046 2.158584 -14.669447 -12.206096 -0.652428 0.352688 -2.293223 4.544059 -2.265079 -70.111537 -1.649366 -0.921222 -0.202938 0.000000 0.000000 0.000000 1.540249 0.394710 2.904360 1.985701 8.111162 18.730308 0.894278 4.019946 -2.165154 26.979925 7.093405 58.162735 0.828635 6.867290 0.555721 0.000000 0.000000 0.000000 
-0.812921 33.073498 1.391817 0.000000 0.000000 0.000000 -6.946447 5.837013 -0.642231 -10.835054 14.219101 15.249770 25.651030 -0.074838 5.449384 -10.058637 -8.787096 -14.306970 -1.620659 0.626246 -1.175898 0.000000 0.000000 0.000000 -7.183519 7.907459 -0.596742 11.225415 -8.170028 5.729271 16.743722 -7.719800 -10.073288 -19.706103 -14.577837 5.485032 -7.299211 -0.756730 -1.442503 0.000000 0.000000 0.000000 -6.418217 5.797063 -1.081046 2.643422 0.228276 4.269500 2.460615 0.234355 2.880454 0.903330 -1.369617 -0.067475 0.000000 0.000000 0.000000 1.874144 0.425098 2.860656 11.935062 -0.275510 -1.130966 1.513200 -8.060597 -6.543502 0.000000 0.000000 0.000000 1.501082 0.452789 2.589444 2.166491 -14.828640 -12.448744 -0.797556 0.557890 -2.098767 4.910698 -1.414298 -70.420719 -1.593179 -0.680571 -0.142925 0.000000 0.000000 0.000000 1.652400 0.259565 2.923363 2.025806 7.703965 18.582587 0.547746 3.807564 -2.167197 27.558205 6.508266 57.610310 0.720369 6.263338 0.561317 0.000000 0.000000 0.000000 
-0.784689 33.147629 1.370520 0.000000 0.000000 0.000000 -6.569569 4.835118 -0.855848 -10.680088 14.407943 15.141336 24.952129 -0.311223 5.225431 -10.112415 -7.437830 -14.037498 -1.511608 0.604676 -1.247162 0.000000 0.000000 0.000000 -6.796072 6.847471 -0.827412 10.868696 -8.356755 5.627457 16.150831 -7.626777 -9.831533 -19.224618 -13.356964 5.501995 -7.252158 -0.688813 -1.374785 0.000000 0.000000 0.000000 -5.957709 4.925948 -1.282378 2.614832 0.174742 4.282158 2.584379 0.152178 2.893841 0.921249 -1.159743 -0.046363 0.000000 0.000000 0.000000 1.980790 0.301106 2.886619 11.581137 -0.011130 -0.985974 0.703585 -6.774266 -5.941626 0.000000 0.000000 0.000000 1.547989 0.335861 2.561115 2.186264 -14.933358 -12.583860 -0.992652 0.703994 -1.925117 5.329605 -0.959303 -70.759735 -1.569900 -0.528365 -0.139964 0.000000 0.000000 0.000000 1.748831 0.163528 2.950965 2.028055 7.567690 18.538313 0.346527 3.569198 -2.121887 26.769214 5.533586 57.350551 0.588299 5.417852 0.621838 0.000000 0.000000 0.000000 
-0.766969 33.219212 1.334517 0.000000 0.000000 0.000000 -6.197338 3.750867 -1.110212 -10.524858 14.502066 15.107590 24.293550 -0.551058 4.987925 -10.183059 -6.000320 -13.809408 -1.454692 0.584957 -1.307669 0.000000 0.000000 0.000000 -6.408235 5.691869 -1.093823 10.509791 -8.564938 5.557080 15.505703 -7.563092 -9.510288 -18.742736 -12.012901 5.487575 -7.218502 -0.642867 -1.296708 0.000000 0.000000 0.000000 -5.541989 3.917016 -1.535831 2.598737 0.142616 4.291726 2.720572 0.086859 2.907706 0.920756 -0.979517 -0.046861 0.000000 0.000000 0.000000 2.080413 0.211944 2.913543 11.177740 0.244669 -0.809160 -0.069250 -5.462370 -5.335062 0.000000 0.000000 0.000000 1.613093 0.252074 2.544887 2.227654 -14.972912 -12.597415 -1.212642 0.721379 -1.794828 5.800917 -0.947064 -71.079422 -1.592321 -0.544010 -0.187240 0.000000 0.000000 0.000000 1.836408 0.101157 2.970128 1.989946 7.612732 18.547285 0.382509 3.380421 -2.058049 25.028373 4.630654 57.214401 0.476528 4.787665 0.693778 0.000000 0.000000 0.000000 
-0.757548 33.289398 1.285494 0.000000 0.000000 0.000000 -5.830208 2.654400 -1.372377 -10.381031 14.519153 15.117703 23.668853 -0.811472 4.732029 -10.194020 -4.567011 -13.643244 -1.412278 0.563684 -1.351889 0.000000 0.000000 0.000000 -6.033483 4.506791 -1.370425 10.185315 -8.779605 5.498800 14.793170 -7.533921 -9.132323 -18.214486 -10.614440 5.475084 -7.232997 -0.623120 -1.220003 0.000000 0.000000 0.000000 -5.177654 2.840943 -1.805492 2.587422 0.121342 4.294259 2.858459 0.026838 2.913080 0.875658 -0.900390 -0.038447 0.000000 0.000000 0.000000 2.175148 0.150788 2.924672 10.773950 0.489340 -0.611373 -0.793328 -4.161835 -4.716691 0.000000 0.000000 0.000000 1.701777 0.192492 2.535467 2.287494 -14.968023 -12.504149 -1.434063 0.642345 -1.719760 6.267985 -1.324685 -71.343191 -1.644638 -0.700344 -0.262133 0.000000 0.000000 0.000000 1.916487 0.063208 2.968371 1.923079 7.792701 18.547659 0.659128 3.313034 -2.045657 22.857332 4.348883 57.037598 0.426542 4.722489 0.730275 0.000000 0.000000 0.000000 
-0.751987 33.361507 1.230633 0.000000 0.000000 0.000000 -5.477191 1.604578 -1.620005 -10.243473 14.507382 15.140209 23.043955 -1.085880 4.461068 -10.110486 -3.201709 -13.529869 -1.351992 0.541363 -1.376568 0.000000 0.000000 0.000000 -5.677881 3.351010 -1.631842 9.922286 -8.969972 5.448067 14.025387 -7.544268 -8.729796 -17.676352 -9.235822 5.422581 -7.208734 -0.625156 -1.151485 0.000000 0.000000 0.000000 -4.861920 1.770170 -2.067781 2.576144 0.099491 4.284510 2.982270 -0.033826 2.905330 0.856164 -0.939317 -0.045729 0.000000 0.000000 0.000000 2.267587 0.109452 2.910446 10.414380 0.719684 -0.402338 -1.451199 -2.913801 -4.087684 0.000000 0.000000 0.000000 1.808078 0.143584 2.522966 2.356179 -14.955782 -12.350142 -1.607063 0.514904 -1.671445 6.654179 -2.009514 -71.530679 -1.712150 -0.936636 -0.338594 0.000000 0.000000 0.000000 1.999184 0.036666 2.949865 1.846126 8.068434 18.491974 0.984796 3.258542 -2.035792 20.668602 5.054702 56.777966 0.453662 5.210411 0.717731 0.000000 0.000000 0.000000 
-0.746387 33.437771 1.175068 0.000000 0.000000 0.000000 -5.140972 0.631294 -1.844792 -10.095571 14.515428 15.155114 22.378908 -1.335288 4.181336 -9.952619 -1.941645 -13.434558 -1.244696 0.518392 -1.389671 0.000000 0.000000 0.000000 -5.347157 2.263835 -1.872815 9.731908 -9.122442 5.396170 13.194512 -7.605263 -8.322009 -17.142393 -7.933015 5.308313 -7.101927 -0.637623 -1.091647 0.000000 0.000000 0.000000 -4.581210 0.757826 -2.303476 2.564202 0.077559 4.265078 3.089172 -0.093484 2.886506 0.895619 -1.016463 -0.045000 0.000000 0.000000 0.000000 2.348002 0.078106 2.872284 10.122843 0.928751 -0.201130 -2.041687 -1.747149 -3.463703 0.000000 0.000000 0.000000 1.926805 0.098951 2.504939 2.422987 -14.954926 -12.199771 -1.743929 0.400771 -1.675794 6.884053 -2.918683 -71.636178 -1.776741 -1.106878 -0.390992 0.000000 0.000000 0.000000 2.093438 0.014157 2.916200 1.773234 8.416221 18.352667 1.237813 3.234532 -2.001284 18.758857 6.677476 56.515164 0.503512 6.137564 0.651632 0.000000 0.000000 0.000000 
-0.737055 33.517075 1.119839 0.000000 0.000000 0.000000 -4.824669 -0.233150 -2.045770 -9.938340 14.579911 15.153917 21.660278 -1.522725 3.897376 -9.736629 -0.814044 -13.330684 -1.115407 0.498259 -1.400549 0.000000 0.000000 0.000000 -5.038475 1.307050 -2.093022 9.620723 -9.224015 5.344963 12.353324 -7.708688 -7.927037 -16.591708 -6.750177 5.142201 -6.966600 -0.651032 -1.044406 0.000000 0.000000 0.000000 -4.314413 -0.159691 -2.506530 2.552208 0.062254 4.242998 3.168877 -0.147069 2.861282 0.947354 -1.060264 -0.027415 0.000000 0.000000 0.000000 2.405551 0.049693 2.819698 9.891973 1.113821 -0.026827 -2.576889 -0.694954 -2.852944 0.000000 0.000000 0.000000 2.035485 0.055019 2.481372 2.468370 -14.993531 -12.108854 -1.856081 0.327110 -1.689037 6.900386 -4.036504 -71.649067 -1.812218 -1.101270 -0.406024 0.000000 0.000000 0.000000 2.186085 -0.004592 2.876808 1.710849 8.879162 18.150422 1.259669 3.153657 -1.925193 17.157495 9.015082 56.305638 0.546098 7.172714 0.545682 0.000000 0.000000 0.000000 
-0.720969 33.597511 1.066139 0.000000 0.000000 0.000000 -4.531985 -1.003669 -2.232522 -9.789153 14.697724 15.148451 20.926122 -1.626062 3.630876 -9.448913 0.153690 -13.208515 -1.010422 0.482595 -1.409028 0.000000 0.000000 0.000000 -4.748802 0.477859 -2.298009 9.547333 -9.281133 5.291911 11.544283 -7.832451 -7.549178 -15.965523 -5.706683 4.973404 -6.889400 -0.660563 -1.012325 0.000000 0.000000 0.000000 -4.051906 -0.965822 -2.683326 2.539972 0.060741 4.220063 3.223344 -0.184826 2.832499 0.981264 -1.039187 -0.026212 0.000000 0.000000 0.000000 2.440075 0.028170 2.766994 9.700417 1.265554 0.113917 -3.059253 0.206441 -2.266160 0.000000 0.000000 0.000000 2.121369 0.019708 2.455125 2.483067 -15.070787 -12.113875 -1.972584 0.301736 -1.685460 6.681878 -5.405684 -71.555418 -1.821892 -0.920839 -0.385989 0.000000 0.000000 0.000000 2.264923 -0.016823 2.838173 1.658735 9.455407 17.905647 1.068623 3.053352 -1.792518 15.723377 11.747841 56.232271 0.527728 8.147770 0.442296 0.000000 0.000000 0.000000 
-0.696083 33.677509 1.009457 0.000000 0.000000 0.000000 -4.263672 -1.679150 -2.406312 -9.666684 14.839795 15.140503 20.232079 -1.633779 3.398632 -9.078006 0.939865 -13.045626 -0.916561 0.470813 -1.427221 0.000000 0.000000 0.000000 -4.475117 -0.231887 -2.494208 9.500036 -9.308210 5.242637 10.767340 -7.946957 -7.193847 -15.247375 -4.800967 4.850810 -6.895261 -0.665229 -0.987258 0.000000 0.000000 0.000000 -3.785730 -1.651281 -2.842404 2.527057 0.084225 4.200103 3.258009 -0.201724 2.799743 0.965032 -0.951427 -0.014726 0.000000 0.000000 0.000000 2.450682 0.014754 2.719478 9.520379 1.382140 0.219389 -3.502826 0.932427 -1.701770 0.000000 0.000000 0.000000 2.176964 -0.000852 2.431970 2.458931 -15.164444 -12.224118 -2.121517 0.290205 -1.689575 6.258163 -7.054953 -71.353292 -1.805844 -0.647855 -0.342566 0.000000 0.000000 0.000000 2.318772 -0.021436 2.793700 1.616882 10.136960 17.631088 0.819180 3.002643 -1.635889 14.374464 14.634671 56.270172 0.446174 9.006830 0.362637 0.000000 0.000000 0.000000 
